<?xml version="1.0" encoding="utf-8"?>
<!-- Generator: Adobe Illustrator 25.4.1, SVG Export Plug-In . SVG Version: 6.00 Build 0)  -->
<svg version="1.1" id="Layer_1" xmlns="http://www.w3.org/2000/svg" xmlns:xlink="http://www.w3.org/1999/xlink" x="0px" y="0px"
	 viewBox="0 0 151.3 185.93" style="enable-background:new 0 0 151.3 185.93;" xml:space="preserve">
<style type="text/css">
	.st0{fill:#FFFFFF;}
</style>
<g>
	<g>
		<g>
			<g>
				<path class="st0" d="M0.04,67.24L0,111.35c24.7,3.66,54.2,1.27,75.07-29.2c0.87-1.3,1.39-0.38,0.83,0.75
					c-5.83,11.85-19.61,22.8-31.53,32.14C32.91,123.99,2.2,156.18,2.58,184.5c0.02,2.18,0.1,1.58,2.01,0.16
					c9.33-6.91,27.57-7.11,38.76-1.73c1.57,0.73,1.69,0.51,1.5-1.51c-2.13-21.96,2.82-45.94,12.25-59.84
					c6.49-9.65,23.95-34.45,26.98-53.93c0.31-2.02-0.73-1.71-3.25,0.95C61.04,89.45,25.31,88.92,2.27,66.77
					C0.81,65.37,0.16,66,0.04,67.24"/>
			</g>
		</g>
		<g>
			<polygon class="st0" points="42.92,0 41.46,4.5 36.68,4.5 40.54,7.3 39.13,11.74 42.92,9.04 46.64,11.75 45.22,7.32 49.11,4.51 
				44.33,4.51 42.92,0 			"/>
		</g>
		<g>
			<polygon class="st0" points="71.05,16.45 72.5,20.92 77.29,20.92 73.4,23.75 74.82,28.17 71.06,25.44 67.28,28.16 68.75,23.75 
				64.81,20.91 69.62,20.91 71.05,16.45 			"/>
		</g>
		<g>
			<polygon class="st0" points="58.99,3.76 60.42,8.25 65.22,8.26 61.33,11.09 62.74,15.52 58.99,12.77 55.24,15.52 56.65,11.06 
				52.77,8.25 57.55,8.25 58.99,3.76 			"/>
		</g>
		<g>
			<polygon class="st0" points="75.65,31.96 77.08,36.45 81.85,36.45 77.99,39.26 79.39,43.7 75.66,40.95 71.9,43.69 73.34,39.26 
				69.43,36.44 74.18,36.45 75.65,31.96 			"/>
		</g>
		<g>
			<polygon class="st0" points="73.62,48.35 75.05,52.83 79.84,52.83 75.95,55.68 77.37,60.1 73.62,57.37 69.88,60.1 71.28,55.65 
				67.41,52.82 72.19,52.82 73.62,48.35 			"/>
		</g>
		<g>
			<polygon class="st0" points="64.56,61.43 65.96,65.92 70.77,65.92 66.88,68.75 68.29,73.17 64.58,70.44 60.8,73.16 62.23,68.75 
				58.32,65.91 63.12,65.92 64.56,61.43 			"/>
		</g>
		<g>
			<polygon class="st0" points="50.32,68.74 51.76,73.23 56.52,73.23 52.64,76.07 54.07,80.51 50.32,77.78 46.56,80.5 47.97,76.06 
				44.09,73.22 48.87,73.23 50.32,68.74 			"/>
		</g>
		<g>
			<polygon class="st0" points="14.22,14.95 12.77,19.41 8.01,19.41 11.87,22.26 10.45,26.68 14.19,23.94 17.97,26.68 16.54,22.26 
				20.46,19.42 15.65,19.42 14.22,14.95 			"/>
		</g>
		<g>
			<polygon class="st0" points="26.01,3.74 24.57,8.22 19.8,8.22 23.68,11.06 22.24,15.49 26.01,12.74 29.77,15.5 28.36,11.04 
				32.25,8.23 27.46,8.23 26.01,3.74 			"/>
		</g>
		<g>
			<polygon class="st0" points="8.71,29.9 7.3,34.37 2.51,34.36 6.41,37.18 4.98,41.63 8.71,38.91 12.47,41.64 11.06,37.19 
				14.97,34.37 10.2,34.37 8.71,29.9 			"/>
		</g>
		<g>
			<polygon class="st0" points="10.19,46.27 8.72,50.77 3.94,50.76 7.83,53.61 6.41,58.04 10.15,55.3 13.92,58.04 12.48,53.6 
				16.37,50.77 11.59,50.77 10.19,46.27 			"/>
		</g>
		<g>
			<polygon class="st0" points="19.21,59.66 17.78,64.15 12.99,64.15 16.88,66.98 15.44,71.4 19.2,68.66 22.99,71.4 21.55,66.97 
				25.43,64.16 20.66,64.16 19.21,59.66 			"/>
		</g>
		<g>
			<polygon class="st0" points="33.44,68.16 32.01,72.66 27.22,72.66 31.1,75.49 29.69,79.9 33.41,77.21 37.2,79.91 35.76,75.46 
				39.67,72.67 34.88,72.66 33.44,68.16 			"/>
		</g>
		<g>
			<path class="st0" d="M122.32,110.08c-7.91-0.01-16.02,3.15-20.29,9.77l-0.15,0l0.8-11.47c0.47-7.75,2.24-28.83,13-28.82
				c5.17,0,4,6.86,4.58,9.98c1.42,7.3,4.59,15.66,14.58,15.67c6.8,0.01,13.94-4.5,13.95-13.71c0.01-14.21-11.87-23.55-26.29-23.56
				c-37.04-0.03-51.93,28.22-51.96,62.45c-0.02,29.72,11.5,55.38,43.31,55.4c20.65,0.02,37.41-14.66,37.43-39.34
				C151.31,125.59,140.29,110.1,122.32,110.08 M111.29,174.19c-8.85-0.01-8.46-11.34-8.45-24.4c0.01-13.08,1.26-24.37,8.49-24.37
				c8.88,0.01,9.34,11.31,9.33,24.38C120.65,162.87,118.81,174.2,111.29,174.19"/>
		</g>
	</g>
</g>
</svg>
