<svg width="220" height="172" viewBox="0 0 220 172" fill="none" xmlns="http://www.w3.org/2000/svg">
<path d="M141.16 160.332C141.16 167.295 145.967 171.931 152.656 171.931C159.344 171.931 164.15 167.124 164.15 160.332C164.15 153.311 159.344 148.704 152.656 148.704C145.967 148.694 141.16 153.473 141.16 160.332ZM158.622 160.332C158.622 164.426 156.275 167.124 152.656 167.124C149.046 167.124 146.689 164.426 146.689 160.332C146.689 156.142 149.046 153.51 152.656 153.51C156.275 153.51 158.622 156.142 158.622 160.332ZM17.632 149.445V171.314C18.5155 171.447 19.3705 171.523 20.2255 171.523C21.0805 171.523 21.8975 171.456 22.7145 171.314V149.445C21.793 149.273 20.9665 149.245 20.121 149.245C19.2755 149.245 18.4585 149.283 17.632 149.445ZM39.558 160.123C41.268 159.372 42.389 157.966 42.389 155.382C42.389 151.497 39.9285 149.103 33.687 149.103C31.1315 149.103 28.576 149.378 26.5905 149.786V171.314C28.5665 171.694 31.0935 171.931 33.82 171.931C40.5365 171.931 43.339 169.3 43.339 165.243C43.3485 162.583 41.8475 160.949 39.558 160.123ZM31.6825 153.311C32.5375 153.245 33.3545 153.207 34.067 153.207C36.3185 153.207 37.411 154.128 37.411 155.629C37.411 157.339 36.556 158.26 34.276 158.26H31.6825V153.311ZM34.3425 167.837C33.383 167.837 32.5375 167.799 31.6825 167.732V162.241H34.5515C37.012 162.241 38.1995 163.267 38.1995 164.977C38.1995 166.877 37.0405 167.837 34.3425 167.837ZM191.064 166.782V162.383H199.415C199.585 161.633 199.652 160.911 199.652 160.17C199.652 159.429 199.585 158.669 199.415 157.919H191.064V153.967H200.45C200.649 153.216 200.716 152.465 200.716 151.715C200.716 150.965 200.649 150.148 200.45 149.426H185.991V171.323H200.792C200.963 170.573 201.029 169.784 201.029 169.034C201.029 168.283 200.963 167.533 200.792 166.782H191.064ZM182.675 156.066C182.675 151.801 179.949 149.046 173.327 149.046C170.905 149.046 168.102 149.321 165.956 149.758V171.314C166.877 171.485 167.694 171.523 168.549 171.523C169.395 171.523 170.249 171.485 171.076 171.314V163.742C171.931 163.771 172.786 163.771 173.565 163.771H173.802L178.305 171.447C178.686 171.485 179.16 171.484 179.607 171.484C181.108 171.484 182.78 171.38 183.901 171.076L178.79 162.65C181.136 161.424 182.675 159.239 182.675 156.066ZM173.764 159.581C172.91 159.581 171.988 159.581 171.066 159.543V153.435C171.95 153.368 172.805 153.33 173.726 153.33C176.244 153.33 177.479 154.489 177.479 156.37C177.489 158.147 176.434 159.581 173.764 159.581ZM68.875 171.314V163.742C69.7205 163.771 70.5755 163.771 71.364 163.771H71.6015L76.1045 171.447C76.4845 171.485 76.9595 171.484 77.406 171.484C78.907 171.484 80.579 171.38 81.7 171.076L76.589 162.65C78.945 161.424 80.4745 159.239 80.4745 156.066C80.4745 151.801 77.748 149.046 71.136 149.046C68.7135 149.046 65.9205 149.321 63.764 149.758V171.314C64.6855 171.485 65.5025 171.523 66.3575 171.523C67.203 171.523 68.0485 171.485 68.875 171.314ZM68.875 153.444C69.7585 153.378 70.6135 153.34 71.535 153.34C74.062 153.34 75.2875 154.499 75.2875 156.38C75.2875 158.156 74.233 159.591 71.573 159.591C70.7275 159.591 69.806 159.59 68.875 159.553V153.444ZM5.0825 166.744V149.416C4.237 149.283 3.382 149.179 2.527 149.179C1.672 149.179 0.855 149.283 0 149.416V171.314H14.0885C14.2595 170.563 14.326 169.775 14.326 169.024C14.326 168.274 14.2595 167.523 14.0885 166.734H5.0825V166.744ZM90.706 171.551C91.561 171.551 92.416 171.485 93.2615 171.314V153.948H99.465C99.6645 153.169 99.7405 152.418 99.7405 151.667C99.7405 150.917 99.6645 150.167 99.465 149.416H81.9375C81.7665 150.167 81.7 150.917 81.7 151.706C81.7 152.418 81.7665 153.207 81.9375 153.957H88.1885V171.323C89.034 171.485 89.851 171.551 90.706 171.551ZM105.564 164.892C105.174 166.174 105.136 166.982 105.136 166.982H111.216L112.784 171.314C113.373 171.418 114.047 171.484 114.665 171.484C115.786 171.484 116.879 171.314 117.942 171.076L109.82 149.416C108.965 149.245 108.215 149.217 107.331 149.217C106.486 149.217 105.554 149.245 104.709 149.416L96.52 171.076C97.2705 171.352 98.2205 171.456 99.218 171.456C99.9685 171.456 100.785 171.418 101.536 171.323L106.514 157.719L107.131 155.6L107.815 157.719L109.659 162.764H106.514C106.495 162.754 105.973 163.533 105.564 164.892ZM60.4485 169.024C60.4485 168.274 60.3725 167.523 60.211 166.773H50.483V162.374H58.843C59.0045 161.624 59.0805 160.902 59.0805 160.161C59.0805 159.42 59.014 158.66 58.843 157.909H50.483V153.957H59.869C60.078 153.207 60.1445 152.456 60.1445 151.706C60.1445 150.955 60.078 150.138 59.869 149.416H45.4005V171.314H60.211C60.3725 170.563 60.4485 169.775 60.4485 169.024ZM212.867 157.805C208.943 156.845 208.468 156.37 208.468 155.278C208.468 154.252 209.561 153.501 211.565 153.501C213.997 153.501 215.906 154.318 217.16 155.211C218.557 154.394 219.412 152.646 219.517 151.079C218.215 150.053 215.697 148.827 211.907 148.827C206.853 148.827 203.509 151.525 203.509 155.715C203.547 160.113 206.786 161.548 210.473 162.431C214.329 163.419 214.871 164.065 214.871 165.186C214.871 166.383 213.911 167.172 211.46 167.172C208.905 167.172 206.625 166.25 205.181 165.091C203.917 165.87 202.996 167.371 202.825 169.148C204.221 170.373 206.948 171.846 211.356 171.846C216.609 171.846 219.925 169.224 219.82 164.474C219.754 160.569 216.961 158.831 212.867 157.805ZM139.355 160.123C139.355 153.435 134.881 148.969 126.806 148.969C123.671 148.969 121.515 149.207 119.748 149.511V171.275C121.761 171.551 123.832 171.713 126.91 171.713C134.406 171.722 139.355 167.324 139.355 160.123ZM124.849 153.815C125.637 153.748 126.35 153.748 127.034 153.748C131.404 153.748 133.75 156.275 133.75 160.199C133.75 164.322 131.366 166.982 127.167 166.982C126.35 166.982 125.59 166.953 124.84 166.915V153.815H124.849ZM135.641 109.193C128.326 94.3825 123.994 76.019 123.994 56.1165C123.994 38.4465 127.404 21.983 133.294 8.1605C131.318 6.5835 129.181 5.206 126.901 4.0565C121.42 19.874 118.246 38.6175 118.246 58.7005C118.246 77.0545 120.897 94.2875 125.533 109.193H135.641ZM84.189 109.193H94.2875C98.9235 94.2875 101.574 77.064 101.574 58.7005C101.574 38.608 98.401 19.874 92.9195 4.0565C90.649 5.206 88.502 6.5835 86.526 8.1605C92.416 21.9925 95.8265 38.456 95.8265 56.1165C95.8265 76.019 91.4945 94.3825 84.189 109.193ZM141.997 109.193H153.387C138.358 99.7785 130.673 76.8835 130.673 54.853C130.673 40.546 134.425 27.2555 140.837 16.2165C139.783 14.6965 138.624 13.262 137.37 11.9225C130.796 24.5385 126.929 39.9855 126.929 56.677C126.92 76.969 132.648 95.4275 141.997 109.193ZM92.9005 56.677C92.9005 39.995 89.034 24.548 82.46 11.9225C81.206 13.262 80.0375 14.706 78.9925 16.2165C85.4145 27.2555 89.1575 40.546 89.1575 54.853C89.1575 76.8835 81.4625 99.7785 66.4335 109.193H77.824C87.172 95.4275 92.9005 76.969 92.9005 56.677ZM109.886 87.7515C109.868 87.7325 109.82 87.7325 109.81 87.761C109.725 87.9225 109.583 88.122 109.497 88.1885C109.307 88.35 108.794 88.711 108.671 88.882C108.642 88.92 108.623 88.9485 108.594 88.9865C108.785 88.92 108.993 88.8725 109.202 88.8345C109.345 88.749 109.506 88.692 109.677 88.654C109.658 88.6255 109.659 88.597 109.659 88.559C109.659 88.4355 109.772 88.331 109.906 88.331C110.038 88.331 110.162 88.4355 110.162 88.559C110.162 88.597 110.153 88.6255 110.143 88.654C110.19 88.6635 110.247 88.673 110.295 88.692C110.276 88.578 110.257 88.388 110.276 88.179C110.295 88.0175 110.067 87.989 109.886 87.7515ZM99.921 109.193H103.189L103.683 108.623C103.721 108.585 103.769 108.557 103.826 108.557C103.949 108.547 104.044 108.462 104.044 108.338V107.616C104.044 107.588 104.053 107.569 104.063 107.54L104.633 106.134C104.643 106.106 104.643 106.087 104.643 106.058V105.517C104.643 105.45 104.69 105.393 104.747 105.384C104.994 105.317 105.583 105.137 106.048 104.956C107.73 104.301 108.537 102.667 108.537 100.795V97.546C108.537 97.413 108.632 97.3085 108.765 97.299C108.917 97.2895 109.069 97.2705 109.202 97.2325C109.24 97.223 109.241 97.166 109.212 97.1565C109.126 97.1185 109.079 97.071 109.079 97.0235V97.014V96.7955C107.578 96.4725 106.381 95.3325 105.992 93.86C105.935 93.746 105.878 93.632 105.84 93.518H105.526C105.507 93.6225 105.488 93.6795 105.469 93.6795H105.222C105.203 93.765 105.184 93.8125 105.156 93.8125H104.87C104.852 93.917 104.823 93.9835 104.794 93.9835H104.405C104.329 93.9835 104.234 93.4895 104.234 92.891C104.234 92.283 104.32 91.7985 104.405 91.7985H104.794C104.823 91.7985 104.852 91.865 104.87 91.9695H105.156C105.174 91.9695 105.203 92.017 105.222 92.1025H105.469C105.488 92.1025 105.517 92.169 105.526 92.264H105.82C105.849 92.0455 105.896 91.827 105.963 91.618C106.001 91.5895 106.039 91.5515 106.086 91.5135C106.457 90.44 107.274 89.566 108.31 89.1195C108.262 89.0625 108.31 88.939 108.433 88.825C108.604 88.673 108.68 88.616 108.746 88.5115C108.823 88.3785 108.965 88.179 109.202 88.0745C109.212 88.065 109.221 88.0555 109.221 88.046C109.241 87.97 109.335 87.685 109.383 87.5805C109.43 87.495 109.459 87.4285 109.478 87.4C109.639 87.096 109.563 87.02 109.563 86.5545C109.563 86.45 109.497 86.488 109.44 86.545C109.392 86.5925 109.231 86.754 109.165 87.02C109.146 87.0865 109.136 87.1435 109.127 87.2005C109.098 87.362 109.098 87.419 108.993 87.4C108.927 87.381 108.946 87.077 109.041 86.792C109.107 86.564 109.221 86.412 109.354 86.2505C109.507 86.07 109.753 85.994 109.782 85.9845C109.801 85.975 109.877 85.9655 109.886 85.9655C109.905 85.9655 109.915 85.9465 109.924 85.937C109.924 85.9275 109.924 85.899 109.915 85.88C109.877 85.8135 109.858 85.747 109.858 85.6615C109.877 85.5095 109.972 85.3765 110.105 85.386C110.229 85.386 110.324 85.519 110.304 85.6805C110.295 85.7565 110.257 85.823 110.21 85.8895C110.162 85.956 110.181 86.0035 110.181 86.0035C110.181 86.0415 110.285 86.108 110.466 86.1365C110.684 86.1745 111.207 86.051 111.312 86.013C111.473 85.9655 111.558 86.0035 111.549 86.0605C111.549 86.127 111.52 86.146 111.34 86.203C110.903 86.3455 110.789 86.393 110.381 86.4215C110.371 86.4215 110.352 86.431 110.342 86.4405C110.324 86.4785 110.333 86.564 110.295 86.6875C110.19 87.001 110.19 87.0295 110.19 87.21C110.19 87.3145 110.2 87.3715 110.229 87.438C110.475 87.9605 110.523 88.0745 110.523 88.1885C110.523 88.3025 110.504 88.654 110.504 88.7965C110.542 88.8155 110.58 88.8345 110.608 88.8535C112.081 89.11 113.269 90.1455 113.743 91.5135C113.782 91.5515 113.819 91.58 113.857 91.618C113.924 91.827 113.971 92.036 114 92.264H114.294C114.313 92.1595 114.332 92.1025 114.361 92.1025H114.608C114.627 92.017 114.646 91.9695 114.674 91.9695H114.95C114.969 91.865 114.997 91.7985 115.026 91.7985H115.415C115.491 91.7985 115.577 92.283 115.577 92.891C115.577 93.499 115.491 93.9835 115.415 93.9835H115.026C114.997 93.9835 114.969 93.917 114.95 93.8125H114.674C114.655 93.8125 114.627 93.765 114.608 93.6795H114.361C114.342 93.6795 114.313 93.613 114.294 93.518H113.99C113.952 93.6415 113.905 93.7555 113.839 93.86C113.449 95.3325 112.261 96.482 110.751 96.7955V97.014C110.751 97.014 110.751 97.0235 110.742 97.0235C110.732 97.071 110.685 97.1185 110.608 97.1565C110.58 97.1755 110.58 97.223 110.618 97.2325C110.76 97.2705 110.903 97.2895 111.055 97.299C111.178 97.3085 111.283 97.413 111.283 97.546V100.795C111.283 102.667 112.09 104.301 113.772 104.956C114.238 105.137 114.826 105.317 115.073 105.384C115.13 105.403 115.178 105.46 115.178 105.517V106.058C115.178 106.087 115.178 106.106 115.197 106.134L115.767 107.54C115.776 107.569 115.777 107.597 115.777 107.616V108.338C115.777 108.452 115.871 108.547 115.976 108.557C116.043 108.557 116.099 108.576 116.137 108.623L116.622 109.193H119.89C113.857 90.193 115.425 14.2405 115.51 0.418C113.696 0.1425 111.815 0 109.915 0C108.005 0 106.134 0.1425 104.31 0.418C104.377 14.2405 105.953 90.193 99.921 109.193ZM144.067 125.096H141.958C141.844 125.096 141.759 125.191 141.759 125.296V140.42C141.759 140.524 141.844 140.619 141.958 140.619H148.371C148.475 140.619 148.57 140.534 148.57 140.42V138.311C148.57 138.206 148.485 138.111 148.371 138.111H144.4C144.324 138.111 144.267 138.054 144.267 137.978V125.286C144.267 125.191 144.172 125.096 144.067 125.096ZM151.003 131.803V133.912C151.003 134.026 151.098 134.112 151.202 134.112H155.572C155.686 134.112 155.771 134.026 155.771 133.912V131.803C155.771 131.689 155.686 131.604 155.572 131.604H151.202C151.098 131.604 151.003 131.689 151.003 131.803ZM83.6285 139.774C83.9895 140.097 84.398 140.334 84.854 140.496C85.31 140.657 85.766 140.743 86.222 140.743C86.678 140.743 87.134 140.657 87.59 140.496C88.046 140.334 88.4545 140.087 88.8155 139.774C89.1765 139.451 89.4805 139.042 89.7085 138.567C89.927 138.083 90.041 137.513 90.041 136.867V128.839C90.041 128.202 89.927 127.632 89.7085 127.148C89.4805 126.664 89.186 126.246 88.825 125.932C88.464 125.619 88.0555 125.372 87.5995 125.21C86.697 124.887 85.766 124.887 84.8635 125.21C84.4075 125.372 83.999 125.619 83.638 125.932C83.277 126.255 82.973 126.664 82.7545 127.148C82.5265 127.632 82.422 128.202 82.422 128.839V136.867C82.422 137.513 82.536 138.083 82.7545 138.567C82.973 139.052 83.2675 139.46 83.6285 139.774ZM84.911 128.849C84.911 128.364 85.0345 128.022 85.291 127.813C85.557 127.585 85.861 127.471 86.222 127.481C86.583 127.481 86.887 127.585 87.153 127.813C87.4095 128.022 87.533 128.374 87.533 128.849V136.876C87.533 137.351 87.4 137.693 87.153 137.911C86.8965 138.14 86.5925 138.244 86.222 138.244C85.861 138.244 85.557 138.14 85.291 137.911C85.0345 137.693 84.911 137.351 84.911 136.876V128.849ZM107.369 132.506L104.842 125.229C104.813 125.153 104.738 125.096 104.652 125.096H102.619C102.514 125.096 102.419 125.182 102.419 125.296V140.42C102.419 140.534 102.514 140.619 102.619 140.619H104.728C104.842 140.619 104.927 140.534 104.927 140.42V132.934C104.927 132.781 105.136 132.753 105.184 132.896L106.79 137.817C106.809 137.864 106.856 137.902 106.913 137.902H108.044C108.101 137.902 108.148 137.864 108.167 137.817L109.791 132.876C109.839 132.734 110.048 132.772 110.048 132.924V140.42C110.048 140.534 110.143 140.619 110.248 140.619H112.347C112.461 140.619 112.547 140.534 112.547 140.42V125.296C112.547 125.191 112.461 125.096 112.347 125.096H110.295C110.209 125.096 110.143 125.153 110.105 125.229L107.597 132.506C107.578 132.63 107.407 132.63 107.369 132.506ZM94.5725 140.619C94.677 140.619 94.772 140.534 94.772 140.42V132.876C94.772 132.725 94.981 132.696 95.0285 132.829L97.8215 140.486C97.85 140.562 97.9165 140.619 98.0115 140.619H99.997C100.102 140.619 100.197 140.534 100.197 140.42V125.296C100.197 125.191 100.102 125.096 99.997 125.096H97.8975C97.7835 125.096 97.698 125.182 97.698 125.296V132.839C97.698 132.981 97.489 133.019 97.4415 132.886L94.696 125.229C94.6675 125.153 94.601 125.096 94.506 125.096H92.473C92.3685 125.096 92.2735 125.182 92.2735 125.296V140.42C92.2735 140.534 92.359 140.619 92.473 140.619H94.5725ZM121.609 140.42V138.32C121.609 138.216 121.515 138.121 121.41 138.121H117.429C117.354 138.121 117.297 138.064 117.297 137.988V134.121C117.297 134.045 117.363 133.988 117.429 133.988H120.859C120.973 133.988 121.059 133.903 121.059 133.789V131.812C121.059 131.699 120.973 131.623 120.859 131.623H117.429C117.363 131.623 117.297 131.566 117.297 131.49V127.623C117.297 127.557 117.363 127.49 117.429 127.49H121.41C121.515 127.49 121.609 127.405 121.609 127.291V125.315C121.609 125.201 121.515 125.115 121.41 125.115H114.998C114.893 125.115 114.798 125.201 114.798 125.315V140.439C114.798 140.553 114.883 140.638 114.988 140.638H121.41C121.515 140.619 121.609 140.524 121.609 140.42ZM130.292 131.537C130.435 131.309 130.53 131.043 130.596 130.739C130.663 130.445 130.701 130.083 130.701 129.656V129.105C130.701 128.592 130.635 128.098 130.492 127.614C130.35 127.129 130.112 126.702 129.779 126.322C129.447 125.951 129.029 125.647 128.516 125.429C128.003 125.201 127.385 125.096 126.673 125.096H123.528C123.414 125.096 123.329 125.182 123.329 125.296V140.41C123.329 140.524 123.414 140.609 123.528 140.609H126.454C127.917 140.609 129 140.23 129.684 139.489C130.349 138.757 130.691 137.684 130.691 136.316V135.461C130.691 134.644 130.568 133.969 130.311 133.475C130.093 133.048 129.77 132.706 129.352 132.458C129.504 132.354 129.656 132.249 129.779 132.135C129.988 131.965 130.15 131.756 130.292 131.537ZM128.279 136.724C128.25 137.019 128.184 137.266 128.06 137.475C127.946 137.674 127.785 137.836 127.566 137.95C127.338 138.064 127.015 138.121 126.606 138.121H125.96C125.884 138.121 125.827 138.064 125.827 137.988V133.713C125.827 133.637 125.884 133.58 125.96 133.58H126.625C126.996 133.58 127.3 133.627 127.518 133.713C127.737 133.798 127.898 133.931 128.012 134.092C128.136 134.264 128.212 134.482 128.25 134.739C128.298 135.014 128.307 135.337 128.307 135.717C128.326 136.078 128.307 136.42 128.279 136.724ZM127.975 130.863C127.766 131.176 127.31 131.338 126.654 131.338H125.97C125.894 131.338 125.837 131.281 125.837 131.205V127.614C125.837 127.538 125.894 127.481 125.97 127.481H126.568C127.233 127.481 127.699 127.633 127.946 127.937C128.193 128.241 128.326 128.725 128.326 129.371C128.326 130.017 128.212 130.521 127.975 130.863ZM78.394 129.78H80.503C80.6075 129.78 80.7025 129.694 80.7025 129.58V128.763C80.7025 128.212 80.6075 127.709 80.427 127.243C80.237 126.778 79.9805 126.369 79.6575 126.037C79.3345 125.704 78.9355 125.438 78.4985 125.258C77.577 124.878 76.4275 124.897 75.544 125.258C75.0975 125.448 74.6985 125.695 74.3755 126.027C74.0525 126.36 73.796 126.749 73.6155 127.196C73.435 127.633 73.3495 128.127 73.3495 128.64V137.009C73.3495 137.722 73.4635 138.33 73.6915 138.805C73.9195 139.28 74.214 139.669 74.575 139.964C74.936 140.258 75.3445 140.467 75.791 140.581C76.228 140.695 76.665 140.762 77.0925 140.762C77.596 140.762 78.071 140.657 78.5175 140.458C78.9545 140.258 79.344 139.992 79.667 139.66C79.99 139.327 80.256 138.928 80.4365 138.491C80.617 138.045 80.712 137.57 80.712 137.085V136.183C80.712 136.069 80.617 135.983 80.5125 135.983H78.4035C78.299 135.983 78.204 136.069 78.204 136.183V136.895C78.204 137.171 78.166 137.399 78.09 137.579C78.014 137.75 77.919 137.893 77.805 137.988C77.691 138.083 77.558 138.159 77.4155 138.197C77.2635 138.244 77.121 138.263 76.9975 138.263C76.5605 138.263 76.2565 138.139 76.095 137.893C75.924 137.626 75.829 137.285 75.829 136.876V129.115C75.829 128.63 75.9145 128.231 76.076 127.918C76.228 127.642 76.532 127.5 77.0165 127.5C77.3775 127.5 77.6625 127.633 77.8715 127.908C78.09 128.193 78.204 128.526 78.204 128.925L78.1945 129.618C78.204 129.685 78.2895 129.78 78.394 129.78ZM64.258 134.112H68.6185C68.723 134.112 68.818 134.026 68.818 133.912V131.803C68.818 131.689 68.723 131.604 68.6185 131.604H64.258C64.1535 131.604 64.0585 131.689 64.0585 131.803V133.912C64.0585 134.017 64.144 134.112 64.258 134.112ZM140.04 136.867V128.839C140.04 128.202 139.925 127.632 139.707 127.148C139.488 126.664 139.185 126.246 138.824 125.932C138.463 125.609 138.044 125.372 137.598 125.21C136.695 124.887 135.765 124.887 134.862 125.21C134.416 125.372 133.997 125.619 133.636 125.932C133.275 126.255 132.971 126.664 132.753 127.148C132.535 127.632 132.421 128.202 132.421 128.839V136.867C132.421 137.513 132.535 138.083 132.753 138.567C132.971 139.052 133.275 139.46 133.636 139.774C133.997 140.097 134.416 140.334 134.862 140.496C135.309 140.657 135.774 140.743 136.23 140.743C136.686 140.743 137.151 140.657 137.598 140.496C138.044 140.334 138.463 140.087 138.824 139.774C139.185 139.451 139.488 139.052 139.707 138.567C139.925 138.092 140.04 137.522 140.04 136.867ZM137.532 136.867C137.532 137.342 137.408 137.684 137.151 137.902C136.885 138.13 136.581 138.234 136.221 138.234C135.85 138.234 135.546 138.13 135.29 137.902C135.042 137.684 134.91 137.342 134.91 136.867V128.839C134.91 128.355 135.033 128.022 135.29 127.804C135.555 127.576 135.859 127.471 136.221 127.471C136.581 127.471 136.885 127.585 137.151 127.813C137.398 128.022 137.532 128.374 137.532 128.849V136.867Z" fill="white"/>
</svg>
