<svg width="190" height="48" viewBox="0 0 190 48" fill="none" xmlns="http://www.w3.org/2000/svg">
<g clip-path="url(#clip0_163_3463)">
<path d="M47.9453 27.0651L26.8672 47.5H0L33.4479 14.2995C45.8672 2.02865 51.8542 0 73.0312 0H156.75L138.591 17.8125H75.4557C59.6224 17.8125 56.2578 19 47.9453 27.0651ZM135.87 20.6328H75.8021C59.8698 20.6328 57.3464 21.8698 50.1224 29.0937L31.7161 47.5H56.6536L62.5911 41.5625C66.5 37.6536 68.2812 37.2578 76.1484 37.2578H119.245L135.87 20.6328ZM142.352 47.5L190 0H160.411L112.911 47.5H142.352Z" fill="white"/>
<path fill-rule="evenodd" clip-rule="evenodd" d="M162 39.4304C162 35.1174 165.478 31.5 169.93 31.5C174.243 31.5 177.861 35.1174 178 39.4304C178 43.8826 174.383 47.5 169.93 47.5C165.617 47.5 162 43.8826 162 39.4304ZM163.67 39.5696C163.67 43.0478 166.452 45.8304 169.93 45.8304C173.409 45.8304 176.191 42.9087 176.191 39.5696C176.191 36.0913 173.409 33.3087 169.93 33.3087C166.452 33.3087 163.67 36.0913 163.67 39.5696ZM170.574 35.5C171.851 35.5 173 36.4697 173 37.803C173 38.8939 172.362 39.7424 171.34 40.1061L173 43.5H171.213L169.681 40.2273H168.532V43.5H167V35.5H170.574ZM168.66 38.6515H170.574C171.085 38.6515 171.468 38.2879 171.468 37.803C171.468 37.3182 171.085 36.9545 170.574 36.9545H168.66V38.6515Z" fill="white"/>
</g>
<defs>
<clipPath id="clip0_163_3463">
<rect width="190" height="47.5" fill="white"/>
</clipPath>
</defs>
</svg>
