<svg width="95" height="113" viewBox="0 0 95 113" fill="none" xmlns="http://www.w3.org/2000/svg">
<path d="M47.5 110.097L2.35126 77.5137V2.34796H92.6488V77.5137L47.5 110.097ZM4.55526 76.3895L47.5 107.384L90.4448 76.3895V4.54895H4.55526V76.3895Z" fill="white"/>
<path d="M47.5665 88.6136C54.929 88.6136 58.9095 87.5937 58.9095 87.5937L61.7073 71.5654L61.1278 71.314C61.1278 71.314 58.8478 74.3593 58.4203 74.9333C57.4845 73.7901 55.6985 72.367 53.2808 71.5654C53.4708 71.1053 54.3495 68.9659 54.3495 68.9659C54.3495 68.9659 53.0005 69.5114 52.421 69.7486C52.478 69.6253 52.5398 69.5114 52.5398 69.5114C52.5398 69.5114 50.4735 69.6205 50.1458 69.6395C49.9795 69.3407 48.849 67.3484 48.7018 67.078C48.8348 66.8408 49.267 66.0961 49.3098 66.025C49.381 65.9586 49.9035 65.5079 49.9035 65.5079L49.2195 64.2082L47.7613 64.3078C47.7613 64.3078 47.7375 64.9861 47.728 65.1142L47.5618 65.3893L47.3908 65.1142C47.386 64.9861 47.3623 64.3078 47.3623 64.3078L45.904 64.2082L45.22 65.5079C45.22 65.5079 45.7473 65.9586 45.8233 66.025C45.8708 66.0961 46.2935 66.8456 46.4313 67.078C46.2793 67.3484 45.1488 69.3407 44.9873 69.6395C44.6548 69.6205 42.5885 69.5114 42.5885 69.5114C42.5885 69.5114 42.6503 69.6253 42.712 69.7486C42.1325 69.5114 40.7835 68.9659 40.7835 68.9659C40.7835 68.9659 41.6623 71.1005 41.8523 71.5654C39.4345 72.367 37.6485 73.7853 36.7128 74.9333C36.29 74.3641 34.0053 71.314 34.0053 71.314L33.4258 71.5654L36.2235 87.5937C36.2188 87.5985 40.204 88.6136 47.5665 88.6136ZM45.4433 70.4364L47.3623 67.1349L46.4218 65.5316L46.1938 65.2992L46.3553 65.0668L46.702 65.0952L46.759 65.3751L47.5713 66.7792L48.3788 65.3751L48.4358 65.0952L48.7825 65.0668L48.9393 65.2992L48.716 65.5316L47.7755 67.1349L49.6945 70.4364H51.2098L51.0245 70.7969H49.495L47.576 67.4907L45.6523 70.7969H44.118L43.9375 70.4364H45.4433ZM36.727 75.9768C37.8243 74.1933 39.9475 72.7513 42.6788 71.9591L41.9235 70.1281L45.7805 71.8595V70.9108L47.5665 67.8465L49.3478 70.9108V71.8595L53.2095 70.1281L52.4543 71.9591C55.1808 72.7513 57.3088 74.1933 58.406 75.9768L60.8998 72.6422L58.4345 86.9344C58.4345 86.9344 55.252 87.7265 49.8845 87.8783C49.8845 87.8783 53.5325 87.5368 55.6985 86.7114C54.2213 86.9201 51.8225 87.2142 49.6375 87.2142C49.6375 87.2142 52.5968 86.9059 54.5633 86.1612C53.0765 86.3651 50.9675 86.5928 49.0248 86.5928C49.0248 86.5928 51.908 86.294 53.8698 85.573C52.1218 85.1982 49.9558 84.8994 47.5713 84.8994C45.1773 84.8994 43.0208 85.1982 41.2633 85.573C43.2298 86.294 46.1178 86.5928 46.1178 86.5928C44.175 86.5928 42.0613 86.3651 40.5793 86.1612C42.541 86.9059 45.5003 87.2142 45.5003 87.2142C43.3153 87.2142 40.9165 86.9201 39.4393 86.7114C41.6053 87.5368 45.2533 87.8783 45.2533 87.8783C39.8858 87.7313 36.7033 86.9344 36.7033 86.9344L34.2428 72.6422L36.727 75.9768Z" fill="white"/>
<path d="M42.8118 73.8802C39.9713 74.9285 38.7933 76.5935 38.4085 78.2205L39.045 79.0696C39.045 79.0696 38.9643 81.3465 39.4155 82.3047C39.558 82.2478 39.7243 82.1908 39.9095 82.1292C38.4323 76.0527 43.2203 74.938 43.2203 74.938C39.8335 76.6789 40.1518 79.7954 40.8405 81.8398C41.1208 81.7639 41.4295 81.6833 41.7715 81.6026L42.2798 79.0886C41.8428 78.9178 41.5293 78.4909 41.5293 77.9976C41.5293 77.3525 42.0565 76.8307 42.6978 76.8307C43.0778 76.8307 43.415 77.0109 43.6288 77.2908C43.9423 77.4853 44.1465 77.8315 44.1465 78.2253C44.1465 78.6474 43.9185 79.0079 43.5765 79.1977L44.6548 81.1568C45.2248 81.0998 45.809 81.0571 46.4028 81.0334L42.94 72.59C40.2468 73.3774 38.1378 74.8242 37.1735 76.5603L37.8528 77.471C39.501 74.2407 42.8118 73.8802 42.8118 73.8802Z" fill="white"/>
<path d="M51.6468 79.0032C51.3 78.7992 51.072 78.4293 51.072 77.9976C51.072 77.3525 51.5993 76.8307 52.2453 76.8307C52.6205 76.8307 52.9578 77.0109 53.1763 77.2908C53.485 77.49 53.694 77.8316 53.694 78.2253C53.694 78.7376 53.3473 79.1645 52.8818 79.2878L53.352 81.6121C53.6893 81.6928 53.998 81.7687 54.283 81.8446C54.9718 79.7954 55.2853 76.6836 51.8985 74.9428C51.8985 74.9428 56.6913 76.0575 55.214 82.1339C55.3993 82.1956 55.5655 82.2573 55.708 82.3094C56.164 81.3513 56.0833 79.0744 56.0833 79.0744L56.7198 78.2205C56.335 76.5983 55.1523 74.9333 52.3165 73.8802C52.3165 73.8802 55.6225 74.2455 57.2755 77.4758L57.9548 76.565C56.9905 74.8289 54.8815 73.3774 52.1883 72.5947L48.716 81.0334C49.3098 81.0572 49.894 81.0951 50.4593 81.1568L51.6468 79.0032Z" fill="white"/>
<path d="M42.7072 77.0016C42.1562 77.0016 41.7097 77.4522 41.7097 78.0025C41.7097 78.5527 42.1562 79.0081 42.7072 79.0081C43.263 79.0081 43.7047 78.5527 43.7047 78.0025C43.7047 77.4475 43.263 77.0016 42.7072 77.0016ZM42.7072 78.8895C42.218 78.8895 41.819 78.4863 41.819 77.9977C41.819 77.5091 42.218 77.1107 42.7072 77.1107C43.2012 77.1107 43.5955 77.5091 43.5955 77.9977C43.5955 78.4863 43.2012 78.8895 42.7072 78.8895Z" fill="white"/>
<path d="M53.2428 77.9976C53.2428 77.4473 52.7963 76.9967 52.2453 76.9967C51.6943 76.9967 51.243 77.4473 51.243 77.9976C51.243 78.5478 51.699 79.0032 52.2453 79.0032C52.7963 79.0032 53.2428 78.5526 53.2428 77.9976ZM52.2405 78.8894C51.7513 78.8894 51.3523 78.4862 51.3523 77.9976C51.3523 77.509 51.7513 77.1105 52.2405 77.1105C52.7345 77.1105 53.1335 77.509 53.1335 77.9976C53.1335 78.4862 52.7345 78.8894 52.2405 78.8894Z" fill="white"/>
<path d="M36.3755 80.5449C36.3755 80.303 36.1855 80.1085 35.9622 80.1085C35.9242 80.1085 35.8862 80.1085 35.853 80.1227L36.0002 80.9766C36.2092 80.9576 36.3755 80.7774 36.3755 80.5449Z" fill="white"/>
<path d="M37.1308 80.5449C37.1308 79.8476 36.6083 79.2926 35.9575 79.2926C35.872 79.2926 35.7865 79.3068 35.701 79.3258L35.7343 79.4871C35.8055 79.4681 35.8815 79.4586 35.9575 79.4586C36.5133 79.4586 36.9693 79.9472 36.9693 80.5496C36.9693 81.0999 36.5893 81.5505 36.1 81.6312L36.1285 81.7924C36.6985 81.6928 37.1308 81.171 37.1308 80.5449Z" fill="white"/>
<path d="M58.7575 80.5449C58.7575 80.7774 58.9238 80.9576 59.1328 80.9766L59.28 80.1227C59.242 80.1085 59.2088 80.1085 59.166 80.1085C58.938 80.1085 58.7575 80.303 58.7575 80.5449Z" fill="white"/>
<path d="M58.995 81.7829L59.0235 81.6216C58.5343 81.5458 58.1543 81.0904 58.1543 80.5401C58.1543 79.9377 58.6103 79.4491 59.1613 79.4491C59.242 79.4491 59.318 79.4586 59.394 79.4776L59.4225 79.321C59.3418 79.3021 59.2563 79.2878 59.1613 79.2878C58.5153 79.2878 57.9928 79.8476 57.9928 80.5401C57.9928 81.171 58.4345 81.6975 58.995 81.7829Z" fill="white"/>
<path d="M47.5618 72.5331C47.8515 72.5331 48.089 72.2959 48.089 72.0113C48.089 71.7219 47.8515 71.4847 47.5618 71.4847C47.2768 71.4847 47.044 71.7219 47.044 72.0113C47.044 72.2959 47.2768 72.5331 47.5618 72.5331ZM47.5618 71.5512C47.8183 71.5512 48.0225 71.7599 48.0225 72.016C48.0225 72.2722 47.8135 72.4714 47.5618 72.4714C47.31 72.4714 47.101 72.2674 47.101 72.016C47.101 71.7551 47.31 71.5512 47.5618 71.5512Z" fill="white"/>
<path d="M50.3785 73.5292C50.6635 73.5292 50.8962 73.2967 50.8962 73.0074C50.8962 72.7228 50.6635 72.4856 50.3785 72.4856C50.0887 72.4856 49.856 72.7228 49.856 73.0074C49.856 73.2967 50.0887 73.5292 50.3785 73.5292ZM50.3785 72.552C50.6302 72.552 50.8392 72.756 50.8392 73.0121C50.8392 73.2683 50.6302 73.477 50.3785 73.477C50.122 73.477 49.913 73.273 49.913 73.0121C49.913 72.7512 50.122 72.552 50.3785 72.552Z" fill="white"/>
<path d="M44.4885 73.5292C44.7735 73.5292 45.011 73.2967 45.011 73.0074C45.011 72.7228 44.7735 72.4856 44.4885 72.4856C44.2035 72.4856 43.966 72.7228 43.966 73.0074C43.966 73.2967 44.2035 73.5292 44.4885 73.5292ZM44.4885 72.552C44.745 72.552 44.9493 72.756 44.9493 73.0121C44.9493 73.2683 44.7403 73.477 44.4885 73.477C44.232 73.477 44.0278 73.273 44.0278 73.0121C44.0278 72.7512 44.232 72.552 44.4885 72.552Z" fill="white"/>
<path d="M7.30075 74.7198L47.5665 103.783L87.8323 74.7198V57.0123H7.30075V74.7198ZM9.83725 61.419H85.3005V73.4201L47.5665 100.653L9.83725 73.4201V61.419V61.419Z" fill="white"/>
<path d="M7.30075 54.5314H87.837V7.06781H7.30075V54.5314ZM85.2958 50.7935H9.8325V9.61033H85.291V50.7935H85.2958Z" fill="white"/>
<path d="M42.7927 44.276C42.7927 44.276 45.3482 40.799 45.3482 35.5005C45.3482 35.5005 41.8475 39.1435 33.6252 39.1435H19.0807V30.1972C19.0807 19.8279 21.4937 16.1185 21.4937 16.1185H12.103C12.103 16.1185 14.516 19.8279 14.516 30.1972C14.516 40.5665 12.103 44.276 12.103 44.276H42.7927V44.276Z" fill="white"/>
<path d="M45.7805 72.2058L42.522 70.7448L45.7805 78.6617V72.2058ZM44.6643 73.7048C44.5455 73.7048 44.4315 73.6668 44.3413 73.6004C44.0753 73.5387 43.8758 73.2968 43.8758 73.0122C43.8758 72.6754 44.1513 72.405 44.4885 72.405C44.6833 72.405 44.859 72.4952 44.973 72.6422C45.1345 72.7371 45.2438 72.9221 45.2438 73.1261C45.239 73.4439 44.9825 73.7048 44.6643 73.7048Z" fill="white"/>
<path d="M49.3477 72.2058V78.6617L52.6062 70.7448L49.3477 72.2058ZM50.5542 73.7048C50.4355 73.7048 50.3215 73.6668 50.2312 73.6004C49.9652 73.5387 49.7752 73.2968 49.7752 73.0122C49.7752 72.6754 50.0412 72.405 50.3832 72.405C50.578 72.405 50.749 72.4952 50.863 72.6422C51.0245 72.7371 51.1337 72.9221 51.1337 73.1261C51.129 73.4439 50.8677 73.7048 50.5542 73.7048Z" fill="white"/>
<path d="M49.02 72.0682L47.5617 70.1708L46.1082 72.0682L47.5617 73.7901L49.02 72.0682ZM46.9537 72.0161C46.9537 71.6793 47.2292 71.4042 47.5617 71.4042C47.899 71.4042 48.1745 71.6793 48.1745 72.0161C48.1745 72.3434 47.899 72.6137 47.5617 72.6137C47.2292 72.6137 46.9537 72.3434 46.9537 72.0161Z" fill="white"/>
<path d="M58.9665 81.9394C58.3253 81.8351 57.836 81.2469 57.836 80.5401C57.836 79.7574 58.4298 79.1218 59.1708 79.1218C59.2658 79.1218 59.3608 79.136 59.451 79.155L60.3535 73.8944L56.4063 79.1597C56.4918 81.6833 55.8695 82.7031 55.8695 82.7031C55.8695 82.7031 54.5443 82.1718 53.0765 81.873L52.5588 79.3257C52.3355 79.321 52.1313 79.2498 51.9603 79.136C51.9603 79.136 51.946 79.1218 51.9413 79.1218L50.6445 81.484C50.6445 81.484 49.0058 81.3275 48.1888 81.3275L48.9203 79.0601L47.557 75.5594L46.1985 79.0601L46.93 81.3275C46.113 81.3275 44.4743 81.484 44.4743 81.484L43.2773 79.2973C43.2013 79.3115 43.1253 79.321 43.0493 79.321C42.8783 79.321 42.7263 79.283 42.579 79.2214L42.0423 81.873C40.5698 82.1718 39.2493 82.7031 39.2493 82.7031C39.2493 82.7031 38.6318 81.6785 38.7125 79.1597L34.7653 73.8944L35.6773 79.155C35.7675 79.136 35.8625 79.1218 35.9575 79.1218C36.689 79.1218 37.2923 79.7574 37.2923 80.5401C37.2923 81.2469 36.7935 81.8303 36.157 81.9394L36.9455 86.4884C38.1853 86.0141 42.3653 84.5721 47.5618 84.5721C52.7583 84.5721 56.943 86.0141 58.1828 86.4884L58.9665 81.9394ZM58.2778 81.8777L58.805 82.1054L58.254 82.6604L58.2778 81.8777ZM36.3233 82.1054L36.8458 81.8777L36.8743 82.6604L36.3233 82.1054ZM35.7485 78.9463L36.0715 78.2395L36.3233 78.97L35.7485 78.9463ZM37.0738 79.3779L36.594 79.0696L37.2353 78.6189L37.0738 79.3779ZM37.2638 79.5961L38.0428 79.5344L37.5155 80.1084L37.2638 79.5961ZM37.126 81.6501L37.4395 81.1662L37.8908 81.8018L37.126 81.6501ZM37.5108 80.967L37.5583 80.393L38.2565 80.7393L37.5108 80.967ZM39.7765 83.7562C39.7765 83.4905 39.9903 83.2866 40.2563 83.2866C40.5175 83.2866 40.7265 83.4905 40.7265 83.7562C40.7265 84.0123 40.5128 84.2353 40.2563 84.2353C39.9903 84.2353 39.7765 84.0123 39.7765 83.7562ZM40.4795 84.406C40.394 84.406 40.3133 84.3823 40.242 84.3444H40.2563C40.5793 84.3444 40.8405 84.0787 40.8405 83.7562C40.8405 83.6139 40.793 83.4905 40.7123 83.3909C40.888 83.481 41.0115 83.6613 41.0115 83.87C41.0115 84.1641 40.774 84.406 40.4795 84.406ZM44.3175 82.945C44.3175 82.6889 44.5313 82.4754 44.7878 82.4754C45.049 82.4754 45.2628 82.6889 45.2628 82.945C45.2628 83.2107 45.049 83.4194 44.7878 83.4194C44.5313 83.4194 44.3175 83.2154 44.3175 82.945ZM45.0205 83.5996C44.9303 83.5996 44.8543 83.5712 44.783 83.538H44.7925C45.1203 83.538 45.3863 83.2771 45.3863 82.9498C45.3863 82.8122 45.334 82.6936 45.2533 82.5893C45.4338 82.6794 45.5525 82.8596 45.5525 83.0636C45.5478 83.3577 45.3103 83.5996 45.0205 83.5996ZM47.0583 78.8798C47.0583 78.6237 47.272 78.4102 47.5333 78.4102C47.7993 78.4102 48.013 78.6237 48.013 78.8798C48.013 79.1455 47.7993 79.3589 47.5333 79.3589C47.272 79.3589 47.0583 79.1455 47.0583 78.8798ZM47.7613 79.525C47.6758 79.525 47.595 79.506 47.5238 79.468L47.5333 79.4775C47.8563 79.4775 48.1223 79.2119 48.1223 78.8798C48.1223 78.747 48.0748 78.6237 47.994 78.5288C48.1698 78.6095 48.2933 78.7897 48.2933 78.9984C48.2933 79.2878 48.0558 79.525 47.7613 79.525ZM49.533 82.945C49.533 82.6889 49.742 82.4754 50.0033 82.4754C50.2645 82.4754 50.483 82.6889 50.483 82.945C50.483 83.2107 50.2693 83.4194 50.0033 83.4194C49.742 83.4194 49.533 83.2154 49.533 82.945ZM50.2313 83.5996C50.1505 83.5996 50.065 83.5712 49.9938 83.538H50.0033C50.331 83.538 50.597 83.2771 50.597 82.9498C50.597 82.8122 50.5495 82.6936 50.464 82.5893C50.6445 82.6794 50.7633 82.8596 50.7633 83.0636C50.7633 83.3577 50.5258 83.5996 50.2313 83.5996ZM54.0835 83.7562C54.0835 83.4905 54.302 83.2866 54.5633 83.2866C54.8245 83.2866 55.0335 83.4905 55.0335 83.7562C55.0335 84.0123 54.8198 84.2353 54.5633 84.2353C54.2973 84.2353 54.0835 84.0123 54.0835 83.7562ZM54.7865 84.406C54.701 84.406 54.6203 84.3823 54.549 84.3444H54.5585C54.8815 84.3444 55.1428 84.0787 55.1428 83.7562C55.1428 83.6139 55.0953 83.4905 55.0193 83.3909C55.195 83.481 55.3185 83.6613 55.3185 83.87C55.3138 84.1641 55.081 84.406 54.7865 84.406ZM59.0615 78.2395L59.3798 78.9463L58.8098 78.97L59.0615 78.2395ZM58.5343 79.0696L58.0593 79.3779L57.8978 78.6189L58.5343 79.0696ZM57.8693 79.5961L57.6223 80.1084L57.0903 79.5344L57.8693 79.5961ZM57.57 80.393L57.6175 80.967L56.867 80.7393L57.57 80.393ZM57.2375 81.7971L57.6935 81.1615L58.007 81.6453L57.2375 81.7971Z" fill="white"/>
<path d="M83.0348 16.1232H48.0463C48.0463 16.1232 50.4688 19.8327 50.4688 30.202C50.4688 40.5713 48.0463 44.2807 48.0463 44.2807H55.0288V33.7881H76.057V44.276H83.0395C83.0395 44.276 80.6218 40.5713 80.6218 30.1972C80.617 19.8279 83.0348 16.1232 83.0348 16.1232ZM76.0523 28.6556H55.0288V21.2557H76.0523V28.6556Z" fill="white"/>
<path d="M79.781 96.9003C79.781 96.3691 79.3582 95.9421 78.8215 95.9421H77.4535V99.1772H78.0615V97.8585H78.4985L79.1017 99.1772H79.781L79.1445 97.8063C79.515 97.6735 79.781 97.3178 79.781 96.9003ZM78.8215 97.2513H78.0662V96.5493H78.8215C79.0162 96.5493 79.1777 96.7058 79.1777 96.9003C79.1777 97.0948 79.0162 97.2513 78.8215 97.2513Z" fill="white"/>
<path d="M78.6172 94.7279C77.0545 94.7279 75.7862 95.9944 75.7862 97.5598C75.7862 99.1157 77.0545 100.387 78.6172 100.387C80.1847 100.387 81.453 99.1157 81.453 97.5598C81.453 95.9944 80.1847 94.7279 78.6172 94.7279ZM78.6172 99.7797C77.3917 99.7797 76.3942 98.7836 76.3942 97.5598C76.3942 96.3312 77.3917 95.3398 78.6172 95.3398C79.8522 95.3398 80.845 96.3312 80.845 97.5598C80.845 98.7836 79.8522 99.7797 78.6172 99.7797Z" fill="white"/>
</svg>
