<?xml version="1.0" encoding="utf-8"?>
<!-- Generator: Adobe Illustrator 25.4.1, SVG Export Plug-In . SVG Version: 6.00 Build 0)  -->
<svg version="1.1" id="Layer_1" xmlns="http://www.w3.org/2000/svg" xmlns:xlink="http://www.w3.org/1999/xlink" x="0px" y="0px"
	 viewBox="0 0 360 124.8" style="enable-background:new 0 0 360 124.8;" xml:space="preserve">
<style type="text/css">
	.st0{fill-rule:evenodd;clip-rule:evenodd;fill:#FFFFFF;}
</style>
<path class="st0" d="M77.3,124.8h-55c-5.4-0.3-11-1.6-15.5-4.7c-3-2-5.4-5-6.3-8.5c-0.5-1.5-0.4-3.1-0.4-4.6c0-1.8,0.6-3.6,1.1-5.4
	C10.5,67.7,19.9,33.9,29.3,0l-0.2,0h42.7c-8.5,30.5-16.9,61.1-25.4,91.6c-0.4,1.1-0.4,2.3,0.3,3.3c1.1,1.6,3.1,2.3,5,2.4
	c2.2,0.1,4.4,0,6.7,0c2.4,0,4.9,0.1,7.2-0.8c1.6-0.6,2.6-2.2,3-3.8C77.1,61.8,85.7,30.9,94.3,0h42.5c-9,32.5-18,65-27.1,97.5
	c-1,3.4-1.9,6.9-2.9,10.4c-1.3,4.2-3.5,8.2-6.9,11.1c-2.5,2.1-5.7,3.4-8.9,4.1C86.6,124.2,81.9,124.5,77.3,124.8L77.3,124.8z
	 M165.1,124.8h-42.8c7.3-26.1,14.5-52.3,21.8-78.4c30.6,0,61.2,0,91.9,0c-2.5,9.2-5.1,18.3-7.6,27.5c-16.5,0-32.9,0-49.4,0l-14.1,51
	L165.1,124.8z M328.9,124.8h-69.8c-5.2-0.3-10.6-1.5-15-4.4c-2.9-1.9-5.4-4.6-6.5-7.9c-1.1-2.8-1-6-0.2-8.8
	c7.9-28.4,15.8-56.9,23.7-85.3c1.1-4.2,3-8.3,6.1-11.4c2-2.1,4.6-3.6,7.4-4.5c5.1-1.7,10.5-2.1,15.8-2.5H360
	c-1,4.1-2.3,8.2-3.4,12.4c-1.4,5-2.8,10-4.2,15.1c-15.1,0-30.2,0-45.2,0c-2.2,0-4.5,0-6.6,0.9c-1.7,0.7-2.6,2.5-3,4.2
	c-5.5,19.8-11,39.7-16.5,59.5c-0.4,1.2-0.1,2.6,0.9,3.6c1.3,1.4,3.4,1.8,5.2,1.8l49.3,0C334,106.5,331.4,115.6,328.9,124.8
	L328.9,124.8z M157,0h91.9c-2.6,9.1-5.1,18.3-7.6,27.4c-30.6,0-61.2,0-91.9,0C151.9,18.3,154.4,9.1,157,0L157,0z"/>
</svg>
